<?xml version="1.0" encoding="utf-8"?>
<!-- Generator: Adobe Illustrator 19.0.0, SVG Export Plug-In . SVG Version: 6.00 Build 0)  -->
<svg xmlns="http://www.w3.org/2000/svg" xmlns:xlink="http://www.w3.org/1999/xlink" version="1.1" id="Layer_1" x="0px" y="0px" width="356.1px" height="74.8px" viewBox="0 0 356.1 74.8" style="enable-background:new 0 0 356.1 74.8;" xml:space="preserve">
<style type="text/css">
	.st0{fill:#FB2F51;}
	.st1{fill:none;}
</style>
<text id="XMLID_16_" transform="matrix(1.0398 0 0 1 70.5457 154.6386)"><tspan x="0" y="0" class="st0" style="font-family:'Poppins-Light'; font-size:53.1175px;">vaah.</tspan><tspan x="142.8" y="0" class="st0" style="font-family:'Poppins-Light'; font-size:28px;">cms</tspan></text>
<path id="XMLID_88_" class="st0" d="M2.4,42.1c0.6,4.1,1.2,8.8,1.8,13c0.7,5,2.3,9.1,4.8,12.6c3.7,4.9,7.9,7.3,13,7.1  c0.6,0,1.2,0,1.9,0c0.5,0,0.9,0,1.3,0c0.2,0,0.5,0,0.7,0h22.7h1.2c3.8,0,8,0,12.5-0.1c1.3,0,2.5-0.2,3.5-0.6  c6.7-2.5,11-7.8,12.4-15.3c0.7-3.9,1-7.9,1.3-11.7V47c0.1-1.4,0.2-2.9,0.4-4.3c0.2-2.1,0.4-4.3,0.5-6.4v-0.2  c0.1-1.2,0.2-2.5,0.3-3.7c0.3-3.3,0.6-6.6,0.8-9.9l0.4-4.4V18c0-3.3-0.8-6.2-2.4-8.8C76,3.4,71,0.6,65,0.9c-4,0.2-8,0.7-11.9,1.2  h-0.2c-1.6,0.2-3.1,0.4-4.7,0.5c-3.1,0.3-6.1,0.7-9.2,1l-1.5,0.2c-7,0.8-14.3,1.6-21.5,2.3c-4.7,0.5-9.1,3-12.2,6.8  c-3,3.8-4.3,8.4-3.7,13C0.8,31.3,1.6,36.8,2.4,42.1 M78.8,17.7l-0.4,4.4c-0.3,3.3-0.6,6.6-0.8,9.8c-0.1,1.3-0.2,2.6-0.3,3.8V36  c-0.2,2-0.3,4.1-0.5,6.1c-0.1,1.5-0.3,3-0.4,4.5c-0.3,3.8-0.6,7.7-1.3,11.4c-1.2,6.4-4.7,10.8-10.5,13c-0.7,0.3-1.5,0.4-2.5,0.4  c-4.3,0.1-8.6,0.1-12.7,0.1h-0.9H25.8h-0.1c-0.5,0-1.1,0-1.8,0c-0.4,0-0.8,0-1.3,0c-0.3,0-0.5,0-0.8,0c-0.1,0-0.3,0-0.4,0  c-3.9,0-7.1-1.9-10-5.8c-2.2-3-3.6-6.6-4.2-11.2c-0.5-4.1-1.1-8.4-1.7-12.6v-0.1c-0.7-5-1.6-10.8-2.3-16.2c-0.5-3.8,0.6-7.6,3-10.7  c2.5-3.2,6.2-5.3,10.1-5.7c7.2-0.7,14.5-1.5,21.5-2.3l0.8-0.1c3.3-0.4,6.6-0.7,9.9-1.1c1.6-0.2,3.2-0.4,4.9-0.6  c3.8-0.5,7.8-0.9,11.7-1.2c4.9-0.3,8.8,2,11.8,6.8C78.2,12.9,78.9,15.2,78.8,17.7l0.2-0.1l0,0L78.8,17.7z"/>
<path id="XMLID_87_" class="st1" d="M32.8,39.2l-0.1-0.1l1.9-3.1c-0.4,0.6-0.7,1.2-1,1.7L32.8,39.2z"/>
<path id="XMLID_86_" class="st0" d="M-13.6,82"/>
<path id="XMLID_85_" class="st0" d="M-10.3,76.2"/>
<g id="XMLID_73_">
	<g id="XMLID_170_">
		<path id="XMLID_173_" class="st0" d="M58.2,28.3c-0.1-0.1-0.1-0.2-0.2-0.3c-0.1-0.2-0.3-0.5-0.5-0.7c-2.3-2.3-4.6-4.6-6.9-6.9    c-0.2-0.2-0.4-0.4-0.7-0.5c-0.1-0.1-0.2-0.1-0.3-0.2l-0.1-0.1h-0.8l-0.1,0.1c-0.1,0.1-0.2,0.1-0.3,0.2c-0.2,0.2-0.5,0.3-0.7,0.5    c-0.9,0.9-1.8,1.8-2.8,2.8l-3.1,3.1c-5.3,5.3-10.7,10.6-16,16c-0.2,0.2-0.4,0.4-0.5,0.7c-0.1,0.1-0.1,0.2-0.2,0.3l-0.1,0.1v5.9    v2.2v1.4h3.5l0,0l5.9,0l0.1-0.1c0.1-0.1,0.2-0.1,0.3-0.2c0.2-0.2,0.5-0.3,0.7-0.5c7.3-7.3,14.6-14.6,21.9-21.9    c0.2-0.2,0.3-0.4,0.5-0.6c0.1-0.1,0.1-0.2,0.2-0.3l0.1-0.1L58.2,28.3L58.2,28.3z M49.4,33.8C44.1,39,38.9,44.3,33.7,49.5    c-0.1,0.1-0.2,0.1-0.3,0.1c-0.8,0-1.7,0-2.5,0c-0.4,0-0.8,0-1.3,0l-1.2,0l0-0.8c0-1.5,0-2.9,0-4.4c0,0,0-0.1,0.1-0.1    c3.7-3.7,7.3-7.4,11-11l4.7-4.7L49.4,33.8z M54.3,28.7l-2.6,2.6l-5.1-5.1l2.6-2.6L54.3,28.7z"/>
		<path id="XMLID_172_" class="st0" d="M56.4,49.6c-2.5,0-5.1,0-7.6,0l-3.5,0c-0.8,0-1.5,0-2.3,0c-0.8,0-1.4,0.6-1.6,1.3    c-0.1,0.7,0.3,1.5,1,1.8l0.1,0l12.3,0.1l0,0h1.9c0.9,0,1.6-0.7,1.6-1.6l0,0L58.2,51C57.9,50.2,57.2,49.6,56.4,49.6    C56.4,49.6,56.4,49.6,56.4,49.6z"/>
		<path id="XMLID_171_" class="st0" d="M56.6,43.4c-2.9,0-5.7,0-8.6,0c-0.5,0-0.9,0.2-1.2,0.5c-0.3,0.3-0.5,0.7-0.4,1.2    c0,0.9,0.7,1.6,1.7,1.6c1.3,0,2.6,0,3.9,0c0.8,0,1.6,0,2.3,0l2.3,0c0.8,0,1.3-0.4,1.6-1.1l0.1-0.1v-0.7l0-0.1    C57.9,43.6,57.2,43.4,56.6,43.4z"/>
	</g>
</g>
<g id="XMLID_23_">
	<g id="XMLID_183_">
		<g id="XMLID_184_">
			<path id="XMLID_199_" class="st0" d="M99.8,27.1h4.1l9.9,25.3l9.9-25.3h4.1l-12.1,29h-3.9L99.8,27.1z"/>
			<path id="XMLID_196_" class="st0" d="M135,52.4c-2.8-2.9-4.1-6.5-4.1-11c0-4.4,1.4-8,4.1-10.7c2.7-2.7,6.2-4.1,10.5-4.1     c2.7,0,5.1,0.6,7.2,1.9c2.1,1.3,3.6,2.9,4.6,4.9v-6.3h3.9v29h-3.9v-6.4c-1,2-2.5,3.7-4.6,5c-2.1,1.3-4.5,1.9-7.2,1.9     C141.3,56.7,137.8,55.2,135,52.4z M154,50.2c2.2-2.2,3.3-5,3.3-8.6s-1.1-6.4-3.3-8.6c-2.2-2.2-4.8-3.3-7.9-3.3     c-3.1,0-5.7,1-7.9,3.1c-2.2,2.1-3.3,4.9-3.3,8.5s1.1,6.5,3.3,8.7c2.2,2.3,4.8,3.4,7.9,3.4C149.1,53.5,151.8,52.4,154,50.2z"/>
			<path id="XMLID_193_" class="st0" d="M171.6,52.4c-2.8-2.9-4.1-6.5-4.1-11c0-4.4,1.4-8,4.1-10.7c2.7-2.7,6.2-4.1,10.5-4.1     c2.7,0,5.1,0.6,7.2,1.9c2.1,1.3,3.6,2.9,4.6,4.9v-6.3h3.9v29h-3.9v-6.4c-1,2-2.5,3.7-4.6,5c-2.1,1.3-4.5,1.9-7.2,1.9     C177.8,56.7,174.4,55.2,171.6,52.4z M190.5,50.2c2.2-2.2,3.3-5,3.3-8.6s-1.1-6.4-3.3-8.6c-2.2-2.2-4.8-3.3-7.9-3.3     s-5.7,1-7.9,3.1c-2.2,2.1-3.3,4.9-3.3,8.5s1.1,6.5,3.3,8.7c2.2,2.3,4.8,3.4,7.9,3.4C185.7,53.5,188.3,52.4,190.5,50.2z"/>
			<path id="XMLID_191_" class="st0" d="M209.8,16.8v15c2-3.5,5.4-5.3,10-5.3c3.4,0,6.1,1.1,8.4,3.2c2.2,2.1,3.4,5.1,3.4,9.1v17.3     h-3.8V39.6c0-3.2-0.8-5.6-2.4-7.3c-1.6-1.7-3.8-2.5-6.6-2.5s-5,0.8-6.6,2.5c-1.6,1.7-2.4,4.1-2.4,7.3v16.6H206V16.8H209.8z"/>
			<path id="XMLID_189_" class="st0" d="M241.6,52.4c-2.8-2.8-4.2-6.4-4.2-11c0-4.6,1.4-8.2,4.2-11s6.4-4.1,10.9-4.1     c3.7,0,6.8,0.9,9.3,2.6c2.5,1.7,4.2,4.2,5,7.4h-8.4c-1-2.4-3-3.7-6-3.7c-2.2,0-4,0.8-5.3,2.4c-1.3,1.6-1.9,3.7-1.9,6.5     c0,2.7,0.6,4.9,1.9,6.5c1.3,1.6,3,2.4,5.3,2.4c2.9,0,4.9-1.2,6-3.7h8.4c-0.9,3.1-2.6,5.5-5.1,7.3c-2.5,1.8-5.6,2.7-9.3,2.7     C248.1,56.6,244.4,55.2,241.6,52.4z"/>
			<path id="XMLID_187_" class="st0" d="M280.5,26.7v4.4c2-3.2,5.1-4.8,9.5-4.8c2.3,0,4.4,0.5,6.2,1.5c1.8,1,3.2,2.5,4.2,4.4     c1.1-1.8,2.5-3.3,4.4-4.4c1.9-1.1,3.9-1.6,6.3-1.6c3.6,0,6.6,1.1,8.8,3.3c2.2,2.2,3.3,5.3,3.3,9.2v17.3h-7.7V39.9     c0-2.3-0.6-4.1-1.8-5.3s-2.9-1.8-5-1.8s-3.8,0.6-5,1.8s-1.8,3-1.8,5.3v16.3h-7.7V39.9c0-2.3-0.6-4.1-1.8-5.3     c-1.2-1.2-2.9-1.8-5-1.8s-3.8,0.6-5,1.8c-1.2,1.2-1.9,3-1.9,5.3v16.3h-7.8V26.7H280.5z"/>
			<path id="XMLID_185_" class="st0" d="M329.6,35.3c0-2.5,1.1-4.7,3.4-6.4c2.2-1.7,5.2-2.6,8.9-2.6c3.7,0,6.7,0.9,8.9,2.6     c2.2,1.7,3.4,4,3.6,7h-8c-0.2-2.5-1.8-3.7-4.8-3.7c-1.5,0-2.6,0.3-3.4,0.9c-0.8,0.6-1.2,1.3-1.2,2.3c0,1,0.6,1.8,1.8,2.3     c1.2,0.6,2.7,1,4.4,1.3c1.7,0.3,3.5,0.7,5.2,1.2c1.7,0.5,3.2,1.3,4.4,2.5c1.2,1.2,1.8,2.8,1.8,4.9c0,2.7-1.2,4.8-3.5,6.5     c-2.3,1.7-5.3,2.5-8.9,2.5s-6.6-0.8-8.9-2.5c-2.3-1.6-3.6-4-3.8-7.1h8c0.3,2.5,1.9,3.7,4.9,3.7c1.4,0,2.6-0.3,3.5-0.9     c0.9-0.6,1.3-1.4,1.3-2.4c0-1-0.6-1.8-1.8-2.4c-1.2-0.6-2.7-1-4.4-1.4c-1.7-0.3-3.5-0.7-5.2-1.2s-3.2-1.3-4.4-2.5     S329.6,37.2,329.6,35.3z"/>
		</g>
	</g>
</g>
</svg>
